<?xml version="1.0" standalone="no"?>
<!DOCTYPE svg PUBLIC "-//W3C//DTD SVG 1.1//EN" "http://www.w3.org/Graphics/SVG/1.1/DTD/svg11.dtd" >
<svg xmlns="http://www.w3.org/2000/svg">
<metadata>Generated by IcoMoon</metadata>
<defs>
<font id="icons" horiz-adv-x="1024">
<font-face units-per-em="1024" ascent="960" descent="-64" />
<missing-glyph horiz-adv-x="1024" />
<glyph unicode="&#x20;" horiz-adv-x="512" d="" />
<glyph unicode="&#xe900;" glyph-name="facebook" horiz-adv-x="975" d="M936.229 932.762h-897.219c-21.577 0-39.010-17.432-39.010-39.009v-897.22c0-21.577 17.432-39.010 39.010-39.010h897.219c21.577 0 39.010 17.432 39.010 39.010v897.22c0 21.577-17.432 39.009-39.010 39.009zM823.589 648.114h-77.897c-61.074 0-72.899-29.013-72.899-71.68v-93.989h145.798l-19.017-147.14h-126.781v-377.783h-152.015v377.661h-127.147v147.261h127.147v108.495c0 125.928 76.922 194.56 189.318 194.56 53.882 0 100.084-4.023 113.615-5.851v-131.535h-0.122z" />
<glyph unicode="&#xe901;" glyph-name="in" horiz-adv-x="975" d="M936.229 932.762h-897.219c-21.577 0-39.010-17.432-39.010-39.009v-897.22c0-21.577 17.432-39.010 39.010-39.010h897.219c21.577 0 39.010 17.432 39.010 39.010v897.22c0 21.577-17.432 39.009-39.010 39.009zM289.28 101.737h-144.701v465.433h144.701v-465.433zM216.99 630.804c-16.588 0-32.804 4.919-46.596 14.135s-24.542 22.314-30.89 37.64c-6.348 15.325-8.009 32.189-4.773 48.458s11.224 31.213 22.954 42.943c11.729 11.73 26.674 19.717 42.943 22.954s33.133 1.575 48.459-4.773c15.325-6.348 28.424-17.098 37.64-30.89s14.135-30.008 14.135-46.596c-0.122-46.324-37.669-83.87-83.87-83.87zM831.025 101.737h-144.579v226.377c0 54.004-0.975 123.368-75.215 123.368-75.215 0-86.796-58.758-86.796-119.467v-230.278h-144.457v465.433h138.728v-63.634h1.95c19.261 36.571 66.438 75.215 136.899 75.215 146.53 0 173.47-96.427 173.47-221.745v-255.269z" />
<glyph unicode="&#xe902;" horiz-adv-x="1047" d="M316.516 424.9h434.746c85.561 0 154.964-69.404 154.964-154.965v-142.791h-744.674v142.791c0 85.675 69.403 154.965 154.964 154.965z" />
<glyph unicode="&#xe903;" horiz-adv-x="1047" d="M964.595 10.411h-861.412c-32.199 0-58.368 26.169-58.368 58.368v161.792c0 32.199 26.169 58.368 58.368 58.368s58.369-26.169 58.369-58.368v-103.31h744.674v103.31c0 32.199 26.17 58.368 58.482 58.368 32.2 0 58.369-26.169 58.369-58.368v-161.678c-0.114-32.313-26.169-58.482-58.482-58.482z" />
<glyph unicode="&#xe904;" horiz-adv-x="1047" d="M166.786 10.411l-41.984-58.368h41.984l65.877 58.368h-65.877z" />
<glyph unicode="&#xe905;" horiz-adv-x="1047" d="M900.993 10.411l41.984-58.368h-41.984l-65.877 58.368h65.877z" />
<glyph unicode="&#xe906;" horiz-adv-x="1047" d="M154.724 724.256h-103.197l-27.648-154.738h158.607l-27.762 154.738z" />
<glyph unicode="&#xe907;" horiz-adv-x="1047" d="M626.447 814.706h-172.26v-172.26h172.26v172.26z" />
<glyph unicode="&#xe908;" horiz-adv-x="1047" d="M906.227 946.8h-172.26v-172.26h172.26v172.26z" />
<glyph unicode="&#xe909;" horiz-adv-x="1047" d="M371.358 411.931h379.904c56.775 0 108.089-33.792 130.389-85.902 2.844-6.599 10.468-9.671 17.18-6.827 6.599 2.844 9.671 10.468 6.827 17.18-26.51 61.781-87.268 101.717-154.396 101.717h-379.904c-7.168 0-13.084-5.803-13.084-13.084 0.114-7.282 5.916-13.084 13.084-13.084z" />
<glyph unicode="&#xe90a;" horiz-adv-x="1047" d="M964.597 302.027c-39.367 0-71.339-31.972-71.452-71.452v-90.34h-346.226v173.17c0 7.168-5.803 13.084-13.084 13.084s-13.084-5.803-13.084-13.084v-173.17h-256.796c-7.168 0-13.084-5.803-13.084-13.084 0-7.168 5.803-13.084 13.084-13.084h642.162c7.168 0 13.084 5.803 13.084 13.084v103.31c0.796 25.031 21.732 44.715 46.763 44.032 24.007-0.683 43.236-20.025 44.032-44.032v-161.678c0-25.031-20.366-45.397-45.397-45.397h-171.008c-7.168 0-13.084-5.803-13.084-13.084s5.803-13.084 13.084-13.084h36.523l62.236-55.068c2.389-2.162 5.461-3.3 8.646-3.3h41.871c7.168 0 13.084 5.803 13.084 13.084 0 2.731-0.796 5.348-2.389 7.623l-27.079 37.774h38.116c39.481 0 71.452 31.972 71.452 71.452v161.678c-0.114 39.481-32.085 71.452-71.452 71.566zM917.493-34.983h-11.605l-36.523 32.313h24.804l23.324-32.313z" />
<glyph unicode="&#xe90b;" horiz-adv-x="1047" d="M210.589 140.233c-7.168 0-13.084-5.803-13.084-13.084 0-7.168 5.803-13.084 13.084-13.084h6.485c7.168 0 13.084 5.803 13.084 13.084 0 7.168-5.803 13.084-13.084 13.084h-6.485z" />
<glyph unicode="&#xe90c;" horiz-adv-x="1047" d="M692.892 23.496h-589.71c-25.031 0-45.397 20.366-45.397 45.397v161.792c-0.569 25.031 19.342 45.739 44.373 46.308s45.739-19.342 46.308-44.373c0-0.683 0-1.252 0-1.934v-103.31c0-7.168 5.803-13.084 13.084-13.084 7.168 0 13.084 5.803 13.084 13.084v142.791c0.114 78.393 63.602 141.881 141.995 141.881 7.168 0 13.084 5.803 13.084 13.084 0 7.168-5.803 13.084-13.084 13.084-86.926-0.114-159.403-66.446-167.253-153.031-9.444 8.078-20.821 13.426-33.109 15.701v223.801c0 7.168-5.803 13.084-13.084 13.084-7.168 0-13.084-5.803-13.084-13.084v-223.801c-33.792-6.258-58.368-35.84-58.368-70.201v-161.678c0-39.481 31.972-71.452 71.452-71.452h38.116l-27.079-37.774c-4.21-5.803-2.845-13.995 2.958-18.204 2.162-1.593 4.892-2.389 7.623-2.389h41.87c3.186 0 6.258 1.138 8.647 3.3l25.259 22.3c5.348 4.779 5.803 13.084 0.91 18.432-4.779 5.234-12.857 5.803-18.204 1.138l-21.504-19.115h-11.605l23.211 32.313h519.509c7.168 0 13.084 5.803 13.084 13.084-0.114 6.94-5.916 12.857-13.084 12.857z" />
<glyph unicode="&#xe90d;" horiz-adv-x="1047" d="M741.477 23.494h-6.144c-7.168 0-13.084-5.803-13.084-13.084 0-7.168 5.803-13.084 13.084-13.084h6.144c7.168 0 13.084 5.803 13.084 13.084 0 7.168-5.803 13.084-13.084 13.084z" />
<glyph unicode="&#xe90e;" horiz-adv-x="1047" d="M520.862 368.354v-6.599c0-7.168 5.803-13.084 13.084-13.084s13.084 5.803 13.084 13.084v6.599c0 7.168-5.803 13.084-13.084 13.084s-13.084-5.916-13.084-13.084z" />
<glyph unicode="&#xe90f;" horiz-adv-x="1047" d="M192.499 561.097c2.503 2.958 3.527 6.827 2.844 10.695l-27.762 154.852c-1.138 6.258-6.485 10.695-12.857 10.695h-103.197c-6.258 0-11.719-4.551-12.857-10.695l-27.762-154.852c-1.252-7.054 3.413-13.881 10.581-15.132 0.796-0.114 1.479-0.228 2.276-0.228h158.72c3.868 0 7.509 1.707 10.012 4.665zM39.468 582.488l23.097 128.796h81.351l23.097-128.796h-127.545z" />
<glyph unicode="&#xe910;" horiz-adv-x="1047" d="M454.188 629.474h172.26c7.168 0 13.084 5.803 13.084 13.084v121.628c0 7.168-5.803 13.084-13.084 13.084-7.168 0-13.084-5.803-13.084-13.084v-108.544h-146.204v146.204h159.175c7.168 0 13.084 5.803 13.084 13.084s-5.803 13.084-13.084 13.084h-172.26c-7.168 0-13.084-5.803-13.084-13.084v-172.26c0.228-7.396 6.030-13.198 13.198-13.198z" />
<glyph unicode="&#xe911;" horiz-adv-x="1047" d="M734.081 761.572h172.26c7.168 0 13.084 5.803 13.084 13.084v172.26c0 7.168-5.803 13.084-13.084 13.084h-172.26c-7.168 0-13.084-5.803-13.084-13.084v-172.26c0-7.282 5.803-13.084 13.084-13.084zM747.051 933.831h146.091v-146.204h-146.204l0.114 146.204z" />
<glyph unicode="&#xe912;" horiz-adv-x="1550" d="M1518.564 850.547h-1487.015v-894.893h1487.015v894.893z" />
<glyph unicode="&#xe913;" horiz-adv-x="1550" d="M1397.068 777.48h-1244.019v-748.765h1244.019v748.765z" />
<glyph unicode="&#xe914;" horiz-adv-x="1550" d="M359.089 28.716l242.439 519.196 242.439-519.196h-484.878z" />
<glyph unicode="&#xe915;" horiz-adv-x="1550" d="M909.839 688.92l-187.088-400.605 121.219-259.598h374.175l-308.307 660.203z" />
<glyph unicode="&#xe916;" horiz-adv-x="1550" d="M391.471 548.049c32.862 0 59.503 26.641 59.503 59.503s-26.641 59.503-59.503 59.503c-32.862 0-59.503-26.641-59.503-59.503s26.641-59.503 59.503-59.503z" />
<glyph unicode="&#xe917;" horiz-adv-x="1550" d="M1518.564 758.109c10.655 0 19.373 8.718 19.373 19.373v73.064c0 0.415-0.277 0.83-0.277 1.384-0.277 2.629-0.969 5.12-2.076 7.472-0.138 0.415-0.138 0.83-0.415 1.245-0.415 0.554-0.969 1.107-1.522 1.661-0.83 1.107-1.661 2.076-2.768 2.906-1.937 1.522-4.013 2.768-6.365 3.598-1.245 0.415-2.491 0.692-3.736 0.692-0.692 0.138-1.522 0.415-2.352 0.415h-112.086c2.491 6.642 3.875 13.561 3.875 20.757 0.554 32.796-25.738 59.918-58.534 60.471s-59.918-25.738-60.471-58.534c0-0.692 0-1.245 0-1.937 0-7.057 1.384-14.115 3.875-20.757h-1040.467c2.491 6.642 3.875 13.561 3.875 20.757 0.554 32.796-25.738 59.918-58.534 60.471s-59.918-25.738-60.471-58.534c0-0.692 0-1.245 0-1.937 0-7.057 1.384-14.115 3.875-20.757h-112.086c-0.692-0.138-1.522-0.277-2.214-0.415-5.12-0.415-9.825-3.183-12.87-7.334-0.554-0.554-1.107-1.107-1.522-1.661-0.277-0.415-0.277-0.83-0.415-1.245-1.107-2.352-1.799-4.843-2.076-7.472 0-0.415-0.277-0.83-0.277-1.384v-895.032c0-0.415 0.277-0.83 0.277-1.384 0.277-2.629 0.969-5.12 2.076-7.472 0.138-0.415 0.138-0.83 0.415-1.245 0.692-1.107 1.522-2.214 2.491-3.183 0.138-0.138 0.277-0.415 0.554-0.554 1.522-1.522 3.459-2.768 5.396-3.598 0.415-0.277 0.969-0.415 1.522-0.554 2.076-0.83 4.428-1.245 6.642-1.384h1487.014c2.214 0 4.566 0.554 6.642 1.384 0.554 0.138 0.969 0.415 1.522 0.554 1.937 0.83 3.875 2.076 5.397 3.598 0.138 0.138 0.277 0.415 0.554 0.554 0.969 0.969 1.799 2.076 2.491 3.183 0.277 0.415 0.277 0.83 0.415 1.245 1.107 2.352 1.799 4.843 2.076 7.472 0 0.415 0.277 0.83 0.277 1.384v733.544c0 10.655-8.718 19.373-19.373 19.373s-19.373-8.718-19.373-19.373v-698.949l-82.75 49.816v47.879c0 10.655-8.718 19.373-19.373 19.373s-19.373-8.718-19.373-19.373v-39.438h-147.235l-303.049 648.995c-4.566 9.686-16.052 13.976-25.738 9.41-4.151-1.937-7.472-5.258-9.41-9.41l-148.618-318.27c-4.566-9.686-0.277-21.31 9.41-25.738 9.686-4.566 21.31-0.277 25.738 9.41l131.044 280.77 277.725-594.889h-330.863l-237.181 507.987c-4.566 9.686-16.052 13.976-25.738 9.41-4.151-1.937-7.472-5.258-9.41-9.41l-207.844-445.163c-4.566-9.686-0.277-21.31 9.41-25.738s21.31-0.277 25.738 9.41l190.27 407.663 211.996-454.019h-67.667c-10.655 0-19.373-8.718-19.373-19.373s8.718-19.373 19.373-19.373h645.674l57.012-34.318h-1347.252l57.012 34.318h498.301c10.655 0 19.373 8.718 19.373 19.373s-8.718 19.373-19.373 19.373h-484.324v709.881h66.837c10.655 0 19.373 8.718 19.373 19.373s-8.718 19.373-19.373 19.373h-80.813l-57.012 34.318h1347.39l-57.012-34.318h-983.87c-10.655 0-19.373-8.718-19.373-19.373s8.718-19.373 19.373-19.373h969.756v-590.184c0-10.655 8.718-19.373 19.373-19.373s19.373 8.718 19.373 19.373v598.21l82.75 49.816v-38.746c-0.138-10.794 8.579-19.511 19.373-19.511-0.138 0-0.138 0 0 0zM1330.231 890.675c0 11.485 9.271 20.757 20.757 20.757s20.757-9.271 20.757-20.757c0-11.485-9.271-20.757-20.757-20.757-11.624 0.138-20.757 9.41-20.757 20.757zM178.508 890.675c0 11.485 9.271 20.618 20.757 20.618s20.618-9.271 20.618-20.757c0-11.347-9.271-20.618-20.757-20.618-11.347 0-20.618 9.271-20.618 20.757zM133.674 39.787l-82.75-49.816v826.396l82.75-49.816v-726.763z" />
<glyph unicode="&#xe918;" horiz-adv-x="1550" d="M341.79 758.111c10.655 0 19.373 8.718 19.373 19.373s-8.718 19.373-19.373 19.373h-9.963c-10.655 0-19.373-8.718-19.373-19.373s8.718-19.373 19.373-19.373h9.963z" />
<glyph unicode="&#xe919;" horiz-adv-x="1550" d="M391.472 528.536c43.589 0 79.014 35.286 79.014 78.876s-35.286 79.014-78.876 79.014c-43.589 0-79.014-35.286-79.014-78.876 0.138-43.589 35.286-78.876 78.876-79.014zM391.472 647.68c22.141 0 40.13-17.851 40.268-40.13 0-22.141-17.851-40.13-40.13-40.268s-40.13 17.851-40.268 40.13c0 0 0 0 0 0.138 0.138 22.141 17.989 39.991 40.13 40.13z" />
<glyph unicode="&#xe91a;" horiz-adv-x="1060" d="M24.094-51.831v879.314h1024v-717.675c0-89.298-72.42-161.761-161.664-161.761l-862.336 0.122z" />
<glyph unicode="&#xe91b;" horiz-adv-x="1060" d="M945.694 56.471c56.554 0 102.4 26.969 102.4 60.235s-45.846 60.235-102.4 60.235c-56.554 0-102.4-26.969-102.4-60.235s45.846-60.235 102.4-60.235z" />
<glyph unicode="&#xe91c;" horiz-adv-x="1060" d="M843.294 884.001v-767.296c0 35.271 45.843 63.952 102.4 63.952s102.4-28.68 102.4-63.952v767.296c0 35.271-45.844 63.951-102.4 63.951-56.557 0-102.4-28.559-102.4-63.951z" />
<glyph unicode="&#xe91d;" horiz-adv-x="1060" d="M635.464 420.856l-154.859 115.975c-2.786 2.030-6.664 2.030-9.451 0l-154.859-115.975c-3.392-2.508-4.12-7.405-1.454-10.75 1.454-1.911 3.756-2.985 6.18-2.985h35.382v-157.897h238.952v157.897h35.383c4.241 0 7.755 3.464 7.755 7.644 0 2.389-1.090 4.659-3.030 6.091z" />
<glyph unicode="&#xe91e;" horiz-adv-x="1060" d="M807.153 826.149c0 7.421-6.024 13.381-13.523 13.381h-780.108c-7.499 0-13.522-5.96-13.522-13.381v-876.768c0-7.42 6.023-13.381 13.522-13.381s13.522 5.961 13.522 13.381v863.51h766.709c7.376 0 13.4 5.96 13.4 13.258z" />
<glyph unicode="&#xe91f;" horiz-adv-x="1060" d="M946.905 960c-63.489 0-113.235-33.693-113.235-76.839v-171.979h-36.368v42.541c0 7.392-5.96 13.331-13.378 13.331-7.42 0-13.379-5.939-13.379-13.331v-42.541h-114.574v42.541c0 7.392-5.96 13.331-13.379 13.331s-13.379-5.939-13.379-13.331v-42.541h-114.574v42.541c0 7.392-5.96 13.331-13.379 13.331s-13.378-5.939-13.378-13.331v-42.541h-114.575v42.541c0 7.392-5.96 13.331-13.378 13.331-7.42 0-13.379-5.939-13.379-13.331v-42.541h-114.574v42.541c0 7.392-5.96 13.331-13.379 13.331s-13.379-5.939-13.379-13.331v-42.541h-43.543c-7.419 0-13.378-5.939-13.378-13.332 0-7.392 5.96-13.331 13.378-13.331h43.543v-76.96h-90.612c-7.419 0-13.379-5.939-13.379-13.332s5.96-13.331 13.379-13.331h90.612v-76.96h-90.612c-7.419 0-13.379-5.939-13.379-13.332s5.96-13.331 13.379-13.331h90.612v-76.961h-90.612c-7.419 0-13.379-5.938-13.379-13.331s5.96-13.331 13.379-13.331h90.612v-76.961h-90.612c-7.419 0-13.379-5.938-13.379-13.331s5.96-13.331 13.379-13.331h90.612v-76.961h-90.612c-7.419 0-13.379-5.938-13.379-13.331s5.96-13.332 13.379-13.332h90.612v-76.96h-90.612c-7.419 0-13.379-5.938-13.379-13.331s5.96-13.332 13.379-13.332h90.612v-45.085c0-7.393 5.96-13.332 13.379-13.332s13.379 5.939 13.379 13.332v45.085h114.574v-45.085c0-7.393 5.96-13.332 13.379-13.332s13.378 5.939 13.378 13.332v45.085h114.575v-45.085c0-7.393 5.96-13.332 13.378-13.332 7.42 0 13.379 5.939 13.379 13.332v45.085h114.574v-45.085c0-7.393 5.96-13.332 13.379-13.332s13.379 5.939 13.379 13.332v45.085h216.011c22.867-12.847 48.774-19.27 74.923-18.907 28.096-0.606 55.827 6.909 79.667 21.816-19.461-61.327-76.505-102.898-141.089-103.018h-811.869c-7.419 0-13.379-5.939-13.379-13.332s5.96-13.331 13.379-13.331h811.869c96.329 0.122 174.415 77.93 174.537 173.919-0.122 0.97-0.243 1.94-0.608 2.788 0.365 2.546 0.608 5.212 0.608 7.757 0 43.025-49.746 76.718-113.236 76.718-31.015 0.97-61.544-8.485-86.599-26.906v374.379c0 7.393-5.96 13.332-13.379 13.332s-13.378-5.939-13.378-13.332v-40.479h-36.368v76.96h49.746c7.42 0 13.379 5.939 13.379 13.331v288.815c0 27.269 39.65 50.176 86.599 50.176s86.599-23.028 86.599-50.176v-610.11c0-7.393 5.961-13.331 13.379-13.331 7.42 0 13.379 5.938 13.379 13.331v610.11c0.122 43.025-49.624 76.718-113.236 76.718zM770.666 684.639v-76.961h-114.574v76.961h114.574zM232.34 684.639h114.574v-76.961h-114.574v76.961zM232.34 89.922v76.96h114.574v-76.96h-114.574zM770.666 166.882v-76.96h-114.574v76.96h114.574zM833.67 297.048h-36.368v76.96h36.368v-76.96zM833.67 270.384v-76.96h-36.368v76.96h36.368zM833.67 166.882v-45.692c0.122-11.15 3.404-22.058 9.608-31.39h-45.975v77.082h36.368zM946.905 171.487c46.949 0 86.599-23.028 86.599-50.176s-39.65-50.176-86.599-50.176c-46.949 0-86.599 23.028-86.599 50.176s39.65 50.176 86.599 50.176zM833.67 477.512v-76.96h-36.368v76.96h36.368zM770.666 504.175h-127.223c-7.42 0-13.379-5.939-13.379-13.332s5.96-13.331 13.379-13.331h127.223v-76.96h-63.977c-7.419 0-13.378-5.939-13.378-13.332s5.96-13.331 13.378-13.331h63.977v-76.96h-79.909c-7.42 0-13.379-5.939-13.379-13.332s5.96-13.331 13.379-13.331h79.909v-76.961h-314.409c-7.42 0-13.379-5.938-13.379-13.331s5.96-13.331 13.379-13.331h173.198v-76.961h-114.574v38.541c0 7.393-5.96 13.332-13.379 13.332s-13.378-5.939-13.378-13.332v-38.541h-114.575v76.961h29.313c7.42 0 13.379 5.938 13.379 13.331s-5.96 13.331-13.379 13.331h-170.523v77.082h66.652c7.42 0 13.379 5.939 13.379 13.332s-5.96 13.331-13.379 13.331h-66.652v76.96h33.326c7.42 0 13.379 5.939 13.379 13.332s-5.96 13.331-13.379 13.331h-33.326v76.961h59.962c7.42 0 13.379 5.938 13.379 13.331s-5.96 13.331-13.379 13.331h-59.962v76.961h114.574v-54.418c0-7.393 5.96-13.332 13.379-13.332s13.378 5.939 13.378 13.332v54.418h162.496c7.42 0 13.379 5.938 13.379 13.331s-5.96 13.331-13.379 13.331h-162.496v76.961h114.575v-42.541c0-7.393 5.96-13.331 13.378-13.331 7.42 0 13.379 5.938 13.379 13.331v42.541h114.574v-76.961h-40.016c-7.42 0-13.379-5.938-13.379-13.331s5.96-13.331 13.379-13.331h40.016v-23.876c0-7.393 5.96-13.332 13.379-13.332s13.379 5.939 13.379 13.332v23.876h114.574v-77.082h-0.243zM797.302 684.639h36.368v-76.961h-36.368v76.961z" />
<glyph unicode="&#xe920;" horiz-adv-x="1060" d="M1042.071 237.176c-10.021 0-18.071-6.107-18.071-13.708v-8.724c0-7.602 8.050-13.708 18.071-13.708s18.071 6.107 18.071 13.708v8.724c0 7.602-8.050 13.708-18.071 13.708z" />
<glyph unicode="&#xe921;" horiz-adv-x="1060" d="M464.589 546.216l-155.116-115.237c-9.224-6.882-11.046-19.819-4.006-28.838 4.006-5.103 10.195-8.070 16.749-8.070h22.091v-143.839c0-7.239 5.948-13.054 13.351-13.054h239.35c7.404 0 13.352 5.815 13.352 13.054v135.888c0 7.239-5.948 13.054-13.352 13.054s-13.351-5.815-13.351-13.054v-123.070h-212.769v143.958c0 7.239-5.948 13.054-13.352 13.054h-19.055l138.73 103.013 151.717-112.745c5.704-4.509 14.079-3.56 18.692 2.018 4.612 5.578 3.641 13.766-2.064 18.277-0.122 0.118-0.364 0.237-0.485 0.355l-155.116 115.237c-7.526 5.579-17.843 5.579-25.367 0z" />
<glyph unicode="&#xe922;" horiz-adv-x="1060" d="M109.945 707.012c-7.524 0-13.568-5.367-13.568-12.047s6.044-12.047 13.568-12.047h9.004c7.524 0 13.568 5.367 13.568 12.047s-6.044 12.047-13.568 12.047h-9.004z" />
<glyph unicode="&#xe923;" horiz-adv-x="1060" d="M795.106 12.698v15.264c0 9.129-5.366 16.462-12.047 16.462-6.68 0-12.047-7.333-12.047-16.462v-15.264c0-9.129 5.367-16.462 12.047-16.462s12.047 7.482 12.047 16.462z" />
<glyph unicode="&#xe924;" horiz-adv-x="1038" d="M57.357 908.511c-46.012-46.012-46.012-120.696 0-166.708l683.623-683.622 166.707 166.707-683.622 683.623c-46.012 46.012-120.696 46.012-166.708 0z" />
<glyph unicode="&#xe925;" horiz-adv-x="1038" d="M145.149 653.877l-87.927 87.927c-45.875 46.285-45.602 120.832 0.683 166.707 46.012 45.602 120.149 45.602 166.161 0l87.927-87.927-166.844-166.707z" />
<glyph unicode="&#xe926;" horiz-adv-x="1038" d="M311.924 820.549l-166.729-166.729 66.325-66.325 166.729 166.729-66.325 66.325z" />
<glyph unicode="&#xe927;" horiz-adv-x="1038" d="M740.979 58.184c0 0-331.776 448.512 83.422 83.422 0 0-528.521 586.957 83.422 83.422l108.407-275.115-275.251 108.271z" />
<glyph unicode="&#xe928;" horiz-adv-x="1038" d="M904.002-6.124c11.742 31.403 36.454 56.115 67.857 67.857l44.1-112.094-111.957 44.237z" />
<glyph unicode="&#xe929;" horiz-adv-x="1038" d="M451.529 661.657c5.325-5.325 14.063-5.325 19.388 0s5.325 14.063 0 19.388l-6.827 6.827c-5.598 5.188-14.336 4.779-19.388-0.819-4.779-5.188-4.779-13.244 0-18.569l6.827-6.827z" />
<glyph unicode="&#xe92a;" horiz-adv-x="1038" d="M629.021 270.489c12.151-3.004 53.794-22.938 186.095-139.264 5.734-5.052 14.336-4.369 19.388 1.229 4.642 5.188 4.506 13.107-0.137 18.159-0.819 0.956-83.149 92.297-144.179 170.94-4.642 6.007-13.244 7.236-19.251 2.594s-7.236-13.244-2.594-19.251c0.137-0.137 0.137-0.137 0.273-0.273 12.971-16.657 26.761-33.86 40.687-50.517-70.861 52.292-89.020 48.606-100.215 38.366-13.926-12.698-12.288-39.049 38.912-122.061l-483.465 483.328 147.456 147.456 46.831-46.967-121.788-121.788c-5.325-5.325-5.325-14.063 0-19.388s14.063-5.325 19.388 0l121.788 121.788 26.487-26.487c5.325-5.325 14.063-5.325 19.388 0s5.325 14.063 0 19.388l-190.464 190.464c-50.927 51.883-134.213 52.838-186.232 1.911s-52.838-134.212-1.911-186.232c0.683-0.683 1.229-1.229 1.911-1.911 5.325-5.461 13.926-5.598 19.388-0.273s5.598 13.926 0.273 19.388c-0.137 0.137-0.273 0.273-0.273 0.273-40.687 40.687-40.687 106.633 0 147.32s106.633 40.687 147.32 0l78.234-78.234-147.183-147.183-42.326 42.325c-5.325 5.325-14.063 5.325-19.388 0s-5.325-14.063 0-19.388l642.117-642.116c0.819-0.683 1.638-1.229 2.458-1.638l1.775-2.458c4.642-6.007 13.244-7.236 19.251-2.594 5.871 4.506 7.1 12.834 2.867 18.842-59.255 80.282-119.876 177.357-122.88 204.254z" />
<glyph unicode="&#xe92b;" horiz-adv-x="1038" d="M1028.79-45.18l-108.407 275.115c0 0.137-0.137 0.137-0.137 0.273-0.683 1.365-1.502 2.731-2.594 3.823-0.137 0.137-0.137 0.41-0.273 0.546l-410.283 410.283c-5.325 5.325-14.063 5.325-19.388 0s-5.325-14.063 0-19.388l247.671-247.671c-109.227 79.326-121.242 68.267-130.526 59.392-12.698-12.015-10.103-32.358 40.141-101.035 4.506-6.144 13.107-7.509 19.251-3.004s7.509 13.107 3.004 19.251c-14.746 18.842-27.58 39.049-38.366 60.484 21.163-8.465 83.968-45.466 267.469-196.335l58.027-147.456c-24.849-12.561-45.056-32.631-57.481-57.481l-102.81 40.55c-7.1 2.867-15.019-0.546-17.886-7.509-2.867-7.1 0.546-15.019 7.509-17.886 0.137 0 0.137-0.137 0.273-0.137l227.055-89.702c7.1-2.731 15.019 0.683 17.886 7.782 1.229 3.277 1.229 6.827-0.137 10.103zM922.567 1.378c9.421 17.886 24.030 32.495 41.916 41.916l27.17-69.086-69.086 27.17z" />
<glyph unicode="&#xe92c;" glyph-name="twitter" horiz-adv-x="975" d="M48.762 932.762c-26.93 0-48.762-21.831-48.762-48.762v-877.715c0-26.931 21.831-48.762 48.762-48.762h877.714c26.931 0 48.762 21.831 48.762 48.762v877.715c0 26.93-21.831 48.762-48.762 48.762h-877.714zM792.269 601.391c-7.524-6.424-12.078-15.722-12.078-25.616v-2.632c0-201.143-152.381-426.667-426.667-426.667-72.26 0-140.15 17.481-199.968 48.747-9.442 4.935-5.734 18.3 4.921 18.3 26.731 0 51.833 3.257 75.605 9.47 40.465 10.581 27.578 77.341 0.821 109.49-6.055 7.275-11.416 15.175-15.992 23.611-7.243 13.351 3.614 28.097 18.804 28.097 11.998 0 11.871 12.434 1.025 17.569-43.236 20.456-76.435 61.952-84.484 111.535-1.601 9.861 8.758 16.678 18.108 13.16 12.005-4.516 19.596 12.363 11.569 22.367-20.406 25.433-31.551 58.401-31.551 91.37 0 3.34 0.073 6.607 0.219 9.8 1.512 32.967 39.317 36.996 64.146 15.256 62.342-54.584 142.591-89.67 227.764-100.928 20.048-2.65 30.918 12.982 30.918 33.205 0 85.333 67.048 152.381 152.381 152.381 37.064 0 69.53-13.799 97.392-37.402 8.026-6.798 18.51-10.465 28.765-8.12 17.681 4.043 34.036 9.656 49.854 16.838 11.049 5.017 22.762-5.149 16.56-15.578-2.896-4.868-6.032-9.554-9.377-14.037-6.812-9.124 4.559-28.865 15.423-25.456 9.304 2.919 16.994-7.562 11.454-15.587-12.971-18.796-28.18-34.287-45.612-49.173z" />
</font>
</defs>
</svg>
